<svg width="100px" height="50px" version="1.1" id="Layer_1" xmlns="http://www.w3.org/2000/svg" xmlns:xlink="http://www.w3.org/1999/xlink" x="0px" y="0px"
	 width="100%" viewBox="0 0 1200 1200" enable-background="new 0 0 1200 1200" xml:space="preserve">
<path fill="#151C48" opacity="1.000000" stroke="none" 
	d="
M636.000000,1201.000000 
	C424.000000,1201.000000 212.500000,1201.000000 1.000000,1201.000000 
	C1.000000,801.000000 1.000000,401.000000 1.000000,1.000000 
	C401.000000,1.000000 801.000000,1.000000 1201.000000,1.000000 
	C1201.000000,401.000000 1201.000000,801.000000 1201.000000,1201.000000 
	C1012.833313,1201.000000 824.666687,1201.000000 636.000000,1201.000000 
M327.425812,598.655029 
	C322.964478,615.174866 318.499969,631.693787 314.042786,648.214722 
	C310.341064,661.935608 311.625885,661.148560 297.956116,660.786133 
	C293.284119,660.662292 292.420074,662.732910 292.589935,666.759460 
	C314.705017,666.759460 336.535553,667.436157 358.300079,666.528992 
	C373.604462,665.891113 387.127197,659.673218 396.359772,646.670044 
	C407.527832,630.940918 401.188019,611.745605 383.018463,605.425049 
	C382.015076,605.076050 381.023560,604.692871 378.922089,603.918762 
	C381.607727,603.076660 383.242188,602.556824 384.881073,602.051392 
	C392.442505,599.719299 399.433563,596.426819 405.037933,590.604370 
	C411.195587,584.207153 413.186127,576.598206 411.413330,568.089722 
	C408.850708,555.790527 398.280579,547.926270 384.152069,547.824402 
	C365.504059,547.690002 346.853088,547.903564 328.206268,547.701233 
	C324.077881,547.656494 323.038788,549.434082 323.174042,553.620056 
	C326.684998,553.620056 330.118073,553.574829 333.549500,553.630493 
	C338.973816,553.718445 339.442719,554.276733 338.082520,559.383606 
	C334.661194,572.229248 331.174774,585.057617 327.425812,598.655029 
M501.634308,636.290100 
	C502.609680,624.298035 498.294983,614.795532 488.201294,608.113586 
	C483.766785,605.177979 479.183350,602.468140 474.687225,599.624512 
	C468.226501,595.538452 461.655945,591.609924 455.360962,587.281494 
	C443.516998,579.137634 446.922119,561.271301 457.234467,555.030029 
	C466.325134,549.528137 480.851318,547.608154 490.145935,560.288025 
	C496.578522,569.063416 499.478119,578.872192 500.114655,590.876526 
	C502.093628,589.641968 504.250671,589.061279 504.495087,588.028137 
	C507.767517,574.193970 510.772766,560.296631 513.829651,546.481689 
	C510.559845,545.151306 509.362305,546.316406 508.243195,548.981506 
	C504.427155,558.069336 502.414978,558.394836 494.658783,552.806824 
	C490.919342,550.112732 486.845245,547.546692 482.531799,546.047241 
	C468.173309,541.055725 448.806854,548.553467 442.165955,561.218201 
	C433.960846,576.865967 437.602356,595.617371 450.965973,605.696167 
	C454.539703,608.391418 458.465698,610.618286 462.217682,613.078918 
	C469.582916,617.909119 477.148193,622.467163 484.248169,627.660767 
	C493.625092,634.520081 491.286865,651.476196 483.434082,657.785339 
	C475.148315,664.442261 458.478149,665.725952 449.465576,659.961304 
	C438.940796,653.229431 433.571533,643.130493 432.015900,631.052063 
	C431.351929,625.896484 431.904938,620.584106 431.904938,615.343018 
	C431.396576,615.066711 430.888214,614.790405 430.379852,614.514099 
	C429.222778,615.794739 427.431274,616.897034 427.013000,618.385315 
	C424.539825,627.185181 422.359650,636.068115 420.131836,644.935913 
	C418.204498,652.607788 416.344910,660.296631 414.455353,667.978027 
	C414.867645,668.350952 415.279938,668.723877 415.692230,669.096802 
	C416.974091,668.120117 418.660645,667.392273 419.448395,666.111633 
	C420.827057,663.870300 421.490540,661.201660 422.746002,658.869446 
	C425.313293,654.100342 427.255157,653.701904 431.153992,657.292725 
	C441.978699,667.262390 454.370941,671.255493 469.191040,669.301208 
	C487.962555,666.825867 499.533112,655.860779 501.634308,636.290100 
M243.452454,666.792114 
	C245.617493,666.792175 247.807312,666.583130 249.942429,666.835876 
	C254.405426,667.364197 255.527283,665.192993 254.853653,660.890930 
	C250.365067,660.890930 245.894211,660.906067 241.423508,660.887207 
	C235.703293,660.863037 235.099319,660.085938 236.621216,654.370178 
	C239.743103,642.645569 242.910004,630.932861 246.082169,619.221680 
	C251.470291,599.329651 256.768005,579.411438 262.425995,559.596252 
	C263.066681,557.352478 265.504669,554.428223 267.575714,553.981384 
	C280.415649,551.210754 289.747162,558.760620 289.852631,571.840454 
	C289.908417,578.755249 289.206482,585.676208 288.842072,592.682190 
	C291.849365,593.892273 293.222534,592.507019 293.875519,589.485779 
	C295.350311,582.662720 296.972198,575.871399 298.549194,569.070557 
	C300.152130,562.158081 301.772858,555.249756 303.513580,547.792114 
	C301.085724,547.792114 299.287872,547.792114 297.490051,547.792114 
	C273.673096,547.792114 249.856079,547.762878 226.039246,547.816833 
	C221.254074,547.827698 215.293839,546.500000 212.028748,548.819946 
	C209.004761,550.968689 208.795761,557.154419 207.466751,561.598206 
	C204.388733,571.889954 201.383041,582.203430 198.364807,592.451111 
	C202.531540,594.174805 203.350586,591.704285 204.402115,589.027344 
	C209.367508,576.386475 214.819916,564.118408 227.476028,556.904907 
	C233.632294,553.396118 239.964020,553.158081 247.149216,554.173340 
	C246.827164,556.250793 246.718048,557.876770 246.311783,559.424683 
	C243.823181,568.906494 241.288406,578.376465 238.729599,587.839600 
	C232.743240,609.978882 226.664597,632.093628 220.790543,654.262573 
	C219.524261,659.041626 217.124329,661.423950 211.992584,660.943787 
	C208.855591,660.650269 205.643494,661.142944 202.510162,660.830688 
	C197.932434,660.374512 196.758331,662.482422 197.301529,666.792114 
	C212.516968,666.792114 227.492416,666.792114 243.452454,666.792114 
M870.303467,503.663818 
	C870.302917,511.661835 870.424622,519.662903 870.226562,527.655945 
	C870.167847,530.028809 869.209778,532.379395 868.673218,534.699219 
	C870.516663,534.699219 873.060547,534.699219 875.982117,534.699219 
	C872.559998,531.850159 871.715515,521.843872 873.579407,506.550049 
	C875.895813,513.701111 877.942871,520.933716 879.921509,528.184998 
	C881.952698,535.628723 881.923462,535.636719 889.632019,534.540771 
	C891.817261,525.329590 894.017456,516.055176 896.217651,506.780792 
	C897.026672,513.938354 897.167664,521.005005 896.942871,528.059937 
	C896.873230,530.244080 895.808899,532.396484 895.207886,534.535400 
	C900.102234,534.535400 905.808655,534.535400 910.742615,534.535400 
	C910.061829,532.519531 909.012451,530.810181 908.979980,529.081848 
	C908.811279,520.087219 908.797485,511.085571 908.985596,502.091736 
	C909.025146,500.200348 910.137268,498.331421 910.813599,496.274445 
	C906.609375,496.274445 901.553711,496.274445 896.167725,496.274445 
	C894.287964,504.032593 892.375427,511.926239 890.462830,519.819885 
	C887.625427,512.947083 885.914307,506.121826 883.951111,499.369904 
	C883.574768,498.075531 882.279968,496.167480 881.282959,496.086151 
	C876.874512,495.726562 872.420044,495.930634 868.451233,495.930634 
	C869.151489,498.494385 869.727478,500.603119 870.303467,503.663818 
M871.134766,704.913696 
	C876.943787,704.913696 882.752808,704.913696 888.957520,704.913696 
	C882.016602,699.187683 886.760864,692.340271 885.057556,686.470032 
	C889.335693,685.251770 890.841980,686.822083 891.022888,690.434143 
	C891.204346,694.058716 891.121643,697.799255 892.032593,701.257690 
	C893.082703,705.244507 899.185913,706.974609 903.931580,705.182373 
	C907.434021,703.859680 908.529175,701.143250 907.046997,696.877625 
	C906.268005,698.399170 905.592957,699.717712 904.332214,702.180298 
	C901.748230,695.714294 905.483398,688.318542 898.375183,684.677368 
	C903.891785,682.491028 904.891907,678.527222 904.374390,673.602661 
	C903.817566,668.303589 900.000977,666.471924 895.772888,666.251831 
	C887.337891,665.812927 878.863953,666.121765 870.870056,666.121765 
	C871.853210,667.853210 873.653748,669.575989 873.700562,671.345093 
	C873.973206,681.647034 873.833984,691.959839 873.833984,701.973816 
	C872.489258,702.947693 871.408081,703.730713 871.134766,704.913696 
M706.593994,516.036133 
	C708.520691,516.036133 710.447388,516.036133 713.314636,516.036133 
	C710.966064,522.544373 715.796326,529.295959 709.500793,534.605347 
	C715.492371,534.605347 721.255859,534.605347 726.094727,534.605347 
	C725.377441,532.302429 724.226624,530.238831 724.172424,528.146729 
	C723.957092,519.829102 723.957520,511.499329 724.167480,503.181366 
	C724.224548,500.920349 725.295898,498.684937 725.950989,496.255066 
	C721.292114,496.255066 715.545410,496.255066 709.402649,496.255066 
	C715.703735,501.434937 711.225159,507.881866 712.942810,513.726074 
	C709.317261,513.726074 706.239868,513.726074 702.600708,513.726074 
	C703.826477,507.741577 700.117798,501.416809 705.530334,496.200104 
	C699.721558,496.200104 694.007874,496.200104 689.095520,496.200104 
	C689.756592,498.514526 690.855347,500.668213 690.908813,502.847534 
	C691.116943,511.332153 691.118408,519.828003 690.905884,528.312439 
	C690.852539,530.443298 689.716797,532.547058 689.104858,534.575684 
	C693.997375,534.575684 699.747253,534.575684 705.616638,534.575684 
	C704.476746,533.091858 702.928955,531.996704 702.838135,530.791748 
	C702.526184,526.654053 702.569946,522.467041 702.859619,518.325500 
	C702.917236,517.502563 704.662720,516.797729 706.593994,516.036133 
M602.923828,589.659424 
	C602.923828,597.320740 602.941040,604.982117 602.914734,612.643311 
	C602.905212,615.407532 603.992920,618.790955 599.064697,619.630798 
	C608.509766,619.925964 617.512329,619.748596 626.421448,618.742615 
	C630.725464,618.256653 633.800476,614.709839 633.536377,610.349609 
	C633.348267,607.244385 631.279846,604.159485 629.659546,601.285889 
	C629.100647,600.294617 627.361084,599.969055 626.053040,599.282898 
	C630.854187,595.561462 632.948975,592.337891 631.616333,588.776489 
	C630.676392,586.264587 628.367126,582.743530 626.277283,582.448425 
	C617.515869,581.211060 608.606750,581.019775 599.751709,580.445374 
	C599.722107,580.901428 599.692566,581.357422 599.662964,581.813477 
	C602.910583,583.624023 602.910583,583.624023 602.923828,589.659424 
M780.968079,677.698364 
	C780.792480,678.336731 780.545715,678.964905 780.451660,679.615051 
	C778.478088,693.257874 781.530518,704.236389 796.284912,705.705261 
	C805.067566,706.579712 812.586060,702.791260 815.550659,695.630554 
	C819.350769,686.451599 817.203796,673.607788 810.988281,668.783936 
	C809.825745,667.881714 808.495056,667.103394 807.123169,666.578613 
	C798.233276,663.177979 785.078430,665.143738 780.968079,677.698364 
M696.747681,583.089783 
	C687.400269,588.622742 686.939087,606.008972 691.645935,612.851013 
	C693.727966,615.877563 697.371033,618.747437 700.857910,619.732178 
	C716.217773,624.070068 726.329102,615.897766 726.156555,599.940430 
	C725.973450,583.019348 712.789062,575.151550 696.747681,583.089783 
M549.205444,525.503662 
	C548.951416,519.686890 549.729858,513.768799 547.552185,508.081665 
	C546.373535,572.679932 546.370117,637.221252 546.442322,701.762512 
	C546.442810,702.219666 547.483459,702.675659 549.205444,704.092224 
	C549.205444,644.093445 549.205444,585.297913 549.205444,525.503662 
M810.050720,495.952423 
	C800.803223,495.952423 791.555786,495.952423 783.233948,495.952423 
	C783.911316,498.664093 784.934204,500.979187 784.993530,503.318695 
	C785.200256,511.475922 785.204407,519.644958 784.989746,527.801819 
	C784.929504,530.090027 783.852905,532.351501 783.223083,534.697510 
	C792.464600,534.697510 802.662659,534.697510 812.932129,534.697510 
	C812.932129,530.354553 812.932129,526.332520 812.932129,522.310486 
	C809.088440,528.192139 805.191650,533.314636 797.146973,532.901489 
	C797.146973,527.419800 797.146973,522.153198 797.146973,516.731873 
	C802.663147,516.110413 803.015991,521.171204 805.747437,524.732178 
	C805.747437,518.235168 805.747437,512.697571 805.747437,507.361694 
	C803.157837,509.864227 800.681396,512.257446 798.204956,514.650635 
	C797.857971,514.300781 797.511047,513.950928 797.164062,513.601074 
	C797.164062,508.478943 797.164062,503.356750 797.164062,498.276703 
	C804.826660,496.788391 807.592590,502.561005 810.730225,507.759094 
	C811.215393,507.523163 811.700623,507.287262 812.185791,507.051331 
	C811.766235,503.441925 811.346619,499.832520 810.050720,495.952423 
M988.219116,681.049988 
	C988.097778,679.725281 987.976440,678.400574 987.870789,677.247314 
	C985.129578,679.882629 982.663513,682.253357 980.197449,684.624146 
	C979.857300,684.266296 979.517212,683.908508 979.177124,683.550720 
	C979.177124,678.428711 979.177124,673.306702 979.177124,668.230957 
	C986.796631,666.855713 989.609497,672.576355 992.753540,677.785767 
	C993.175476,677.550720 993.597412,677.315674 994.019348,677.080627 
	C993.844971,673.450134 993.670593,669.819641 993.500061,666.268677 
	C983.344604,666.268677 973.825806,666.268677 965.128357,666.268677 
	C965.819214,668.647278 966.928406,670.793823 966.987488,672.968872 
	C967.204834,680.960632 967.228149,688.966431 966.985291,696.956665 
	C966.905945,699.568726 965.792542,702.149231 965.138611,704.798584 
	C974.393860,704.798584 984.499695,704.798584 994.851807,704.798584 
	C994.851807,700.498535 994.851807,696.419434 994.851807,692.340393 
	C990.991272,698.252014 987.160767,703.385559 979.222778,702.821655 
	C979.222778,697.289856 979.222778,692.049072 979.222778,685.589966 
	C981.497070,687.094482 983.285645,687.865540 984.474182,689.179260 
	C985.675354,690.507141 986.282227,692.372681 987.149414,694.002686 
	C987.505981,693.922363 987.862549,693.842041 988.219116,693.761719 
	C988.219116,689.815735 988.219116,685.869690 988.219116,681.049988 
M978.941040,510.133148 
	C978.941040,506.163513 978.941040,502.193878 978.941040,498.314636 
	C986.833069,496.783569 989.567139,502.607941 992.757080,507.727753 
	C993.174500,507.518097 993.591919,507.308441 994.009399,507.098785 
	C993.842590,503.466858 993.675781,499.834900 993.510864,496.243896 
	C983.375366,496.243896 973.842590,496.243896 965.115662,496.243896 
	C965.825623,498.663910 966.931702,500.777527 966.987427,502.918457 
	C967.199768,511.075928 967.216614,519.246216 966.986084,527.402771 
	C966.916931,529.849670 965.805298,532.267090 965.184937,534.645691 
	C974.479736,534.645691 984.680664,534.645691 994.885254,534.645691 
	C994.885254,530.288452 994.885254,526.304993 994.885254,522.321533 
	C990.960999,528.126892 987.236572,533.449341 979.190918,532.846680 
	C979.190918,527.341309 979.190918,522.090637 979.190918,516.740051 
	C984.741211,516.133545 985.000732,521.306091 987.693604,524.463074 
	C987.693604,518.241455 987.693604,512.700134 987.693604,507.089508 
	C985.585022,509.408051 984.021240,511.749908 981.886169,513.309753 
	C979.487366,515.062317 978.765198,513.321960 978.941040,510.133148 
M781.734314,583.608948 
	C784.773499,588.938965 787.970703,594.188843 790.746033,599.652832 
	C791.482727,601.103210 791.665527,603.729248 790.829712,604.927979 
	C787.346863,609.923523 786.428101,616.911560 779.850830,619.653809 
	C783.644714,619.653809 787.438599,619.653809 791.232544,619.653809 
	C791.282776,619.377380 791.333008,619.101013 791.383240,618.824585 
	C789.975647,618.396973 788.568054,617.969299 786.760315,617.420105 
	C789.206848,613.481201 791.567078,609.681152 794.195496,605.449402 
	C796.726013,609.956177 798.831116,613.705139 800.923279,617.431274 
	C799.960571,618.045532 799.146729,618.564758 797.681763,619.499512 
	C804.994751,619.499512 811.370300,619.499512 817.891235,619.499512 
	C816.105225,618.059326 814.258118,617.179382 813.336121,615.716431 
	C810.066345,610.528015 807.061340,605.169006 804.082153,599.804565 
	C803.494019,598.745422 802.799072,596.876648 803.284546,596.228455 
	C806.961487,591.318359 807.936829,584.210266 814.750183,581.360352 
	C810.967773,581.360352 807.185364,581.360352 803.402954,581.360352 
	C803.363098,581.623413 803.323242,581.886414 803.283386,582.149475 
	C804.650452,582.578674 806.017517,583.007874 807.698669,583.535706 
	C805.731262,586.687500 803.996521,589.495667 802.224060,592.279785 
	C801.895874,592.795288 801.415344,593.213867 800.963928,593.723633 
	C795.283325,585.811096 794.882874,584.518616 796.979309,581.270264 
	C790.818054,581.270264 784.641541,581.270264 778.465027,581.270264 
	C778.409119,581.540405 778.353210,581.810547 778.297302,582.080688 
	C779.237976,582.435852 780.178589,582.791077 781.734314,583.608948 
M625.493652,675.116577 
	C626.306152,676.051636 627.118652,676.986633 628.494385,678.569824 
	C628.494385,673.706848 628.494385,670.106018 628.494385,666.728271 
	C623.884277,666.135803 619.716064,665.208374 615.536194,665.152100 
	C608.779236,665.061035 603.933777,669.060852 602.891235,674.877380 
	C601.583984,682.170837 604.351318,687.166321 611.271667,689.819336 
	C614.044434,690.882385 616.897644,691.733582 619.687866,692.753174 
	C623.140015,694.014648 625.443420,696.811035 623.596375,699.966736 
	C622.494568,701.849182 618.077942,703.650879 616.275024,702.875671 
	C612.547424,701.272644 609.507507,697.996460 606.320557,695.250732 
	C605.230042,694.311096 604.545288,692.900269 603.675171,691.704773 
	C603.218750,691.882812 602.762268,692.060852 602.305847,692.238892 
	C602.561523,696.571533 602.817200,700.904175 603.055786,704.947083 
	C605.551758,704.947083 607.673279,704.839294 609.778442,704.978271 
	C611.761658,705.109253 613.719666,705.596313 615.702576,705.759888 
	C623.292847,706.385925 629.531921,702.238220 630.885803,695.740112 
	C632.541687,687.792114 629.383057,682.553467 621.220154,679.740845 
	C618.566833,678.826599 615.553101,678.445251 613.349182,676.900208 
	C611.550171,675.638855 609.408142,672.768372 609.726074,671.034668 
	C610.335754,667.710632 613.956604,666.344177 616.819641,667.761475 
	C619.920837,669.296631 622.340820,672.207764 625.493652,675.116577 
M701.854553,690.500122 
	C701.854553,694.477173 701.854553,698.454224 701.854553,702.339600 
	C700.049805,702.915833 698.549438,703.394836 697.049133,703.873840 
	C697.130310,704.120972 697.211426,704.368042 697.292603,704.615173 
	C704.092285,704.615173 710.891907,704.615173 717.691589,704.615173 
	C717.744202,704.341248 717.796753,704.067322 717.849365,703.793457 
	C716.397400,703.346313 714.945496,702.899170 713.603271,702.485840 
	C713.603271,690.997437 713.603271,679.623291 713.603271,668.051331 
	C721.096069,668.919678 719.776917,676.827026 724.927490,681.154480 
	C724.560181,675.387512 724.272461,670.870667 723.978088,666.249390 
	C712.885071,666.249390 702.007935,666.249390 691.016296,666.249390 
	C690.699646,671.091492 690.405579,675.588684 690.111450,680.085876 
	C694.932617,676.602966 694.197876,669.152222 701.854553,667.977356 
	C701.854553,675.319092 701.854553,682.408691 701.854553,690.500122 
M610.854553,526.495789 
	C610.854553,528.474121 610.854553,530.452454 610.854553,532.341064 
	C609.051880,532.915588 607.550171,533.394226 606.048462,533.872864 
	C606.129272,534.120178 606.210083,534.367554 606.290955,534.614868 
	C613.089600,534.614868 619.888306,534.614868 626.687012,534.614868 
	C626.732544,534.338745 626.778076,534.062561 626.823669,533.786438 
	C625.379150,533.341309 623.934631,532.896179 622.606628,532.486938 
	C622.606628,520.996704 622.606628,509.622711 622.606628,498.049927 
	C630.098267,498.923615 628.770874,506.836212 633.929016,511.149750 
	C633.560608,505.388367 633.271790,500.871155 632.976135,496.247955 
	C621.886169,496.247955 611.008423,496.247955 600.016174,496.247955 
	C599.700317,501.088623 599.406860,505.586517 599.113342,510.084442 
	C603.933228,506.602173 603.199951,499.150238 610.854553,497.976227 
	C610.854553,507.318878 610.854553,516.406006 610.854553,526.495789 
z"/>
<path fill="#D8C7C2" opacity="1.000000" stroke="none" 
	d="
M327.570129,598.273926 
	C331.174774,585.057617 334.661194,572.229248 338.082520,559.383606 
	C339.442719,554.276733 338.973816,553.718445 333.549500,553.630493 
	C330.118073,553.574829 326.684998,553.620056 323.174042,553.620056 
	C323.038788,549.434082 324.077881,547.656494 328.206268,547.701233 
	C346.853088,547.903564 365.504059,547.690002 384.152069,547.824402 
	C398.280579,547.926270 408.850708,555.790527 411.413330,568.089722 
	C413.186127,576.598206 411.195587,584.207153 405.037933,590.604370 
	C399.433563,596.426819 392.442505,599.719299 384.881073,602.051392 
	C383.242188,602.556824 381.607727,603.076660 378.922089,603.918762 
	C381.023560,604.692871 382.015076,605.076050 383.018463,605.425049 
	C401.188019,611.745605 407.527832,630.940918 396.359772,646.670044 
	C387.127197,659.673218 373.604462,665.891113 358.300079,666.528992 
	C336.535553,667.436157 314.705017,666.759460 292.589935,666.759460 
	C292.420074,662.732910 293.284119,660.662292 297.956116,660.786133 
	C311.625885,661.148560 310.341064,661.935608 314.042786,648.214722 
	C318.499969,631.693787 322.964478,615.174866 327.570129,598.273926 
M339.017029,614.628174 
	C335.345062,628.244507 331.765686,641.886841 327.944855,655.461304 
	C326.793030,659.553467 328.042999,660.977783 332.105103,660.923401 
	C340.083099,660.816589 348.064117,660.831665 356.042755,660.911499 
	C364.047363,660.991638 370.723358,658.075439 375.671722,651.855713 
	C384.041626,641.335388 385.480011,629.533569 380.700378,617.159546 
	C378.238708,610.786499 373.178284,607.130615 366.119080,606.905090 
	C360.306946,606.719482 354.489441,606.666809 348.673889,606.631775 
	C341.214294,606.586914 341.214081,606.619995 339.017029,614.628174 
M354.747711,557.335999 
	C350.865112,571.490112 346.982544,585.644226 343.030762,600.050720 
	C353.089050,600.050720 362.263184,600.629028 371.336060,599.916992 
	C385.425201,598.811340 395.222809,587.497803 395.335785,573.341187 
	C395.441101,560.146790 389.488159,553.909119 376.404694,553.631958 
	C371.410614,553.526123 366.387360,553.321960 361.427673,553.748047 
	C359.230316,553.936829 357.157898,555.579834 354.747711,557.335999 
z"/>
<path fill="#D8C8C2" opacity="1.000000" stroke="none" 
	d="
M501.562439,636.740845 
	C499.533112,655.860779 487.962555,666.825867 469.191040,669.301208 
	C454.370941,671.255493 441.978699,667.262390 431.153992,657.292725 
	C427.255157,653.701904 425.313293,654.100342 422.746002,658.869446 
	C421.490540,661.201660 420.827057,663.870300 419.448395,666.111633 
	C418.660645,667.392273 416.974091,668.120117 415.692230,669.096802 
	C415.279938,668.723877 414.867645,668.350952 414.455353,667.978027 
	C416.344910,660.296631 418.204498,652.607788 420.131836,644.935913 
	C422.359650,636.068115 424.539825,627.185181 427.013000,618.385315 
	C427.431274,616.897034 429.222778,615.794739 430.379852,614.514099 
	C430.888214,614.790405 431.396576,615.066711 431.904938,615.343018 
	C431.904938,620.584106 431.351929,625.896484 432.015900,631.052063 
	C433.571533,643.130493 438.940796,653.229431 449.465576,659.961304 
	C458.478149,665.725952 475.148315,664.442261 483.434082,657.785339 
	C491.286865,651.476196 493.625092,634.520081 484.248169,627.660767 
	C477.148193,622.467163 469.582916,617.909119 462.217682,613.078918 
	C458.465698,610.618286 454.539703,608.391418 450.965973,605.696167 
	C437.602356,595.617371 433.960846,576.865967 442.165955,561.218201 
	C448.806854,548.553467 468.173309,541.055725 482.531799,546.047241 
	C486.845245,547.546692 490.919342,550.112732 494.658783,552.806824 
	C502.414978,558.394836 504.427155,558.069336 508.243195,548.981506 
	C509.362305,546.316406 510.559845,545.151306 513.829651,546.481689 
	C510.772766,560.296631 507.767517,574.193970 504.495087,588.028137 
	C504.250671,589.061279 502.093628,589.641968 500.114655,590.876526 
	C499.478119,578.872192 496.578522,569.063416 490.145935,560.288025 
	C480.851318,547.608154 466.325134,549.528137 457.234467,555.030029 
	C446.922119,561.271301 443.516998,579.137634 455.360962,587.281494 
	C461.655945,591.609924 468.226501,595.538452 474.687225,599.624512 
	C479.183350,602.468140 483.766785,605.177979 488.201294,608.113586 
	C498.294983,614.795532 502.609680,624.298035 501.562439,636.740845 
z"/>
<path fill="#D9C8C3" opacity="1.000000" stroke="none" 
	d="
M242.960159,666.792114 
	C227.492416,666.792114 212.516968,666.792114 197.301529,666.792114 
	C196.758331,662.482422 197.932434,660.374512 202.510162,660.830688 
	C205.643494,661.142944 208.855591,660.650269 211.992584,660.943787 
	C217.124329,661.423950 219.524261,659.041626 220.790543,654.262573 
	C226.664597,632.093628 232.743240,609.978882 238.729599,587.839600 
	C241.288406,578.376465 243.823181,568.906494 246.311783,559.424683 
	C246.718048,557.876770 246.827164,556.250793 247.149216,554.173340 
	C239.964020,553.158081 233.632294,553.396118 227.476028,556.904907 
	C214.819916,564.118408 209.367508,576.386475 204.402115,589.027344 
	C203.350586,591.704285 202.531540,594.174805 198.364807,592.451111 
	C201.383041,582.203430 204.388733,571.889954 207.466751,561.598206 
	C208.795761,557.154419 209.004761,550.968689 212.028748,548.819946 
	C215.293839,546.500000 221.254074,547.827698 226.039246,547.816833 
	C249.856079,547.762878 273.673096,547.792114 297.490051,547.792114 
	C299.287872,547.792114 301.085724,547.792114 303.513580,547.792114 
	C301.772858,555.249756 300.152130,562.158081 298.549194,569.070557 
	C296.972198,575.871399 295.350311,582.662720 293.875519,589.485779 
	C293.222534,592.507019 291.849365,593.892273 288.842072,592.682190 
	C289.206482,585.676208 289.908417,578.755249 289.852631,571.840454 
	C289.747162,558.760620 280.415649,551.210754 267.575714,553.981384 
	C265.504669,554.428223 263.066681,557.352478 262.425995,559.596252 
	C256.768005,579.411438 251.470291,599.329651 246.082169,619.221680 
	C242.910004,630.932861 239.743103,642.645569 236.621216,654.370178 
	C235.099319,660.085938 235.703293,660.863037 241.423508,660.887207 
	C245.894211,660.906067 250.365067,660.890930 254.853653,660.890930 
	C255.527283,665.192993 254.405426,667.364197 249.942429,666.835876 
	C247.807312,666.583130 245.617493,666.792175 242.960159,666.792114 
z"/>
<path fill="#D5C5C1" opacity="1.000000" stroke="none" 
	d="
M870.303467,503.187836 
	C869.727478,500.603119 869.151489,498.494385 868.451233,495.930634 
	C872.420044,495.930634 876.874512,495.726562 881.282959,496.086151 
	C882.279968,496.167480 883.574768,498.075531 883.951111,499.369904 
	C885.914307,506.121826 887.625427,512.947083 890.462830,519.819885 
	C892.375427,511.926239 894.287964,504.032593 896.167725,496.274445 
	C901.553711,496.274445 906.609375,496.274445 910.813599,496.274445 
	C910.137268,498.331421 909.025146,500.200348 908.985596,502.091736 
	C908.797485,511.085571 908.811279,520.087219 908.979980,529.081848 
	C909.012451,530.810181 910.061829,532.519531 910.742615,534.535400 
	C905.808655,534.535400 900.102234,534.535400 895.207886,534.535400 
	C895.808899,532.396484 896.873230,530.244080 896.942871,528.059937 
	C897.167664,521.005005 897.026672,513.938354 896.217651,506.780792 
	C894.017456,516.055176 891.817261,525.329590 889.632019,534.540771 
	C881.923462,535.636719 881.952698,535.628723 879.921509,528.184998 
	C877.942871,520.933716 875.895813,513.701111 873.579407,506.550049 
	C871.715515,521.843872 872.559998,531.850159 875.982117,534.699219 
	C873.060547,534.699219 870.516663,534.699219 868.673218,534.699219 
	C869.209778,532.379395 870.167847,530.028809 870.226562,527.655945 
	C870.424622,519.662903 870.302917,511.661835 870.303467,503.187836 
z"/>
<path fill="#DBCAC4" opacity="1.000000" stroke="none" 
	d="
M870.730835,704.713684 
	C871.408081,703.730713 872.489258,702.947693 873.833984,701.973816 
	C873.833984,691.959839 873.973206,681.647034 873.700562,671.345093 
	C873.653748,669.575989 871.853210,667.853210 870.870056,666.121765 
	C878.863953,666.121765 887.337891,665.812927 895.772888,666.251831 
	C900.000977,666.471924 903.817566,668.303589 904.374390,673.602661 
	C904.891907,678.527222 903.891785,682.491028 898.375183,684.677368 
	C905.483398,688.318542 901.748230,695.714294 904.332214,702.180298 
	C905.592957,699.717712 906.268005,698.399170 907.046997,696.877625 
	C908.529175,701.143250 907.434021,703.859680 903.931580,705.182373 
	C899.185913,706.974609 893.082703,705.244507 892.032593,701.257690 
	C891.121643,697.799255 891.204346,694.058716 891.022888,690.434143 
	C890.841980,686.822083 889.335693,685.251770 885.057556,686.470032 
	C886.760864,692.340271 882.016602,699.187683 888.957520,704.913696 
	C882.752808,704.913696 876.943787,704.913696 870.730835,704.713684 
M887.094666,683.701355 
	C891.772827,681.812195 893.644714,677.201721 891.958191,671.438843 
	C890.969482,668.060547 888.627563,667.342712 884.670776,668.506470 
	C885.210510,673.618103 885.745850,678.687866 887.094666,683.701355 
z"/>
<path fill="#DBCAC4" opacity="1.000000" stroke="none" 
	d="
M706.111938,516.037231 
	C704.662720,516.797729 702.917236,517.502563 702.859619,518.325500 
	C702.569946,522.467041 702.526184,526.654053 702.838135,530.791748 
	C702.928955,531.996704 704.476746,533.091858 705.616638,534.575684 
	C699.747253,534.575684 693.997375,534.575684 689.104858,534.575684 
	C689.716797,532.547058 690.852539,530.443298 690.905884,528.312439 
	C691.118408,519.828003 691.116943,511.332153 690.908813,502.847534 
	C690.855347,500.668213 689.756592,498.514526 689.095520,496.200104 
	C694.007874,496.200104 699.721558,496.200104 705.530334,496.200104 
	C700.117798,501.416809 703.826477,507.741577 702.600708,513.726074 
	C706.239868,513.726074 709.317261,513.726074 712.942810,513.726074 
	C711.225159,507.881866 715.703735,501.434937 709.402649,496.255066 
	C715.545410,496.255066 721.292114,496.255066 725.950989,496.255066 
	C725.295898,498.684937 724.224548,500.920349 724.167480,503.181366 
	C723.957520,511.499329 723.957092,519.829102 724.172424,528.146729 
	C724.226624,530.238831 725.377441,532.302429 726.094727,534.605347 
	C721.255859,534.605347 715.492371,534.605347 709.500793,534.605347 
	C715.796326,529.295959 710.966064,522.544373 713.314636,516.036133 
	C710.447388,516.036133 708.520691,516.036133 706.111938,516.037231 
z"/>
<path fill="#DBCAC4" opacity="1.000000" stroke="none" 
	d="
M602.923828,589.187744 
	C602.910583,583.624023 602.910583,583.624023 599.662964,581.813477 
	C599.692566,581.357422 599.722107,580.901428 599.751709,580.445374 
	C608.606750,581.019775 617.515869,581.211060 626.277283,582.448425 
	C628.367126,582.743530 630.676392,586.264587 631.616333,588.776489 
	C632.948975,592.337891 630.854187,595.561462 626.053040,599.282898 
	C627.361084,599.969055 629.100647,600.294617 629.659546,601.285889 
	C631.279846,604.159485 633.348267,607.244385 633.536377,610.349609 
	C633.800476,614.709839 630.725464,618.256653 626.421448,618.742615 
	C617.512329,619.748596 608.509766,619.925964 599.064697,619.630798 
	C603.992920,618.790955 602.905212,615.407532 602.914734,612.643311 
	C602.941040,604.982117 602.923828,597.320740 602.923828,589.187744 
M621.493225,607.828979 
	C621.145996,603.642517 620.157288,600.131165 614.499268,601.248230 
	C614.499268,606.790161 614.499268,612.230286 614.499268,617.650757 
	C620.388428,618.103210 620.909790,617.413086 621.493225,607.828979 
M620.044739,589.609375 
	C620.043396,585.966370 619.760986,582.571655 614.697144,583.110596 
	C614.697144,588.499146 614.697144,593.517822 614.697144,598.728821 
	C620.302368,598.007629 620.044983,594.167480 620.044739,589.609375 
z"/>
<path fill="#D9C8C3" opacity="1.000000" stroke="none" 
	d="
M781.042664,677.299377 
	C785.078430,665.143738 798.233276,663.177979 807.123169,666.578613 
	C808.495056,667.103394 809.825745,667.881714 810.988281,668.783936 
	C817.203796,673.607788 819.350769,686.451599 815.550659,695.630554 
	C812.586060,702.791260 805.067566,706.579712 796.284912,705.705261 
	C781.530518,704.236389 778.478088,693.257874 780.451660,679.615051 
	C780.545715,678.964905 780.792480,678.336731 781.042664,677.299377 
M805.017883,691.282715 
	C804.692810,684.693848 804.707825,678.057922 803.806763,671.548767 
	C803.577820,669.894714 800.527405,667.679443 798.606689,667.499268 
	C796.940613,667.343018 793.538330,669.636719 793.480957,670.959473 
	C793.061768,680.617371 793.096191,690.312988 793.561462,699.969055 
	C793.621765,701.219788 797.004395,703.271606 798.783752,703.206116 
	C800.537781,703.141418 802.859802,701.193054 803.750732,699.462585 
	C804.821106,697.383789 804.642334,694.661804 805.017883,691.282715 
z"/>
<path fill="#D9C8C3" opacity="1.000000" stroke="none" 
	d="
M697.094910,582.947510 
	C712.789062,575.151550 725.973450,583.019348 726.156555,599.940430 
	C726.329102,615.897766 716.217773,624.070068 700.857910,619.732178 
	C697.371033,618.747437 693.727966,615.877563 691.645935,612.851013 
	C686.939087,606.008972 687.400269,588.622742 697.094910,582.947510 
M705.057190,617.965393 
	C709.684814,619.343872 712.954102,617.690857 713.192139,612.903625 
	C713.609131,604.516907 713.658752,596.072021 713.081665,587.705383 
	C712.947937,585.766968 709.917847,582.967407 707.780762,582.475647 
	C704.540710,581.730225 701.995544,584.219604 701.918335,587.692261 
	C701.728088,596.250549 701.784973,604.819641 702.021423,613.376709 
	C702.060974,614.809937 703.498108,616.204590 705.057190,617.965393 
z"/>
<path fill="#BFB2B3" opacity="1.000000" stroke="none" 
	d="
M549.205444,526.003052 
	C549.205444,585.297913 549.205444,644.093445 549.205444,704.092224 
	C547.483459,702.675659 546.442810,702.219666 546.442322,701.762512 
	C546.370117,637.221252 546.373535,572.679932 547.552185,508.081665 
	C549.729858,513.768799 548.951416,519.686890 549.205444,526.003052 
z"/>
<path fill="#D9C8C3" opacity="1.000000" stroke="none" 
	d="
M810.488892,496.087769 
	C811.346619,499.832520 811.766235,503.441925 812.185791,507.051331 
	C811.700623,507.287262 811.215393,507.523163 810.730225,507.759094 
	C807.592590,502.561005 804.826660,496.788391 797.164062,498.276703 
	C797.164062,503.356750 797.164062,508.478943 797.164062,513.601074 
	C797.511047,513.950928 797.857971,514.300781 798.204956,514.650635 
	C800.681396,512.257446 803.157837,509.864227 805.747437,507.361694 
	C805.747437,512.697571 805.747437,518.235168 805.747437,524.732178 
	C803.015991,521.171204 802.663147,516.110413 797.146973,516.731873 
	C797.146973,522.153198 797.146973,527.419800 797.146973,532.901489 
	C805.191650,533.314636 809.088440,528.192139 812.932129,522.310486 
	C812.932129,526.332520 812.932129,530.354553 812.932129,534.697510 
	C802.662659,534.697510 792.464600,534.697510 783.223083,534.697510 
	C783.852905,532.351501 784.929504,530.090027 784.989746,527.801819 
	C785.204407,519.644958 785.200256,511.475922 784.993530,503.318695 
	C784.934204,500.979187 783.911316,498.664093 783.233948,495.952423 
	C791.555786,495.952423 800.803223,495.952423 810.488892,496.087769 
z"/>
<path fill="#D9C8C3" opacity="1.000000" stroke="none" 
	d="
M988.219116,681.486816 
	C988.219116,685.869690 988.219116,689.815735 988.219116,693.761719 
	C987.862549,693.842041 987.505981,693.922363 987.149414,694.002686 
	C986.282227,692.372681 985.675354,690.507141 984.474182,689.179260 
	C983.285645,687.865540 981.497070,687.094482 979.222778,685.589966 
	C979.222778,692.049072 979.222778,697.289856 979.222778,702.821655 
	C987.160767,703.385559 990.991272,698.252014 994.851807,692.340393 
	C994.851807,696.419434 994.851807,700.498535 994.851807,704.798584 
	C984.499695,704.798584 974.393860,704.798584 965.138611,704.798584 
	C965.792542,702.149231 966.905945,699.568726 966.985291,696.956665 
	C967.228149,688.966431 967.204834,680.960632 966.987488,672.968872 
	C966.928406,670.793823 965.819214,668.647278 965.128357,666.268677 
	C973.825806,666.268677 983.344604,666.268677 993.500061,666.268677 
	C993.670593,669.819641 993.844971,673.450134 994.019348,677.080627 
	C993.597412,677.315674 993.175476,677.550720 992.753540,677.785767 
	C989.609497,672.576355 986.796631,666.855713 979.177124,668.230957 
	C979.177124,673.306702 979.177124,678.428711 979.177124,683.550720 
	C979.517212,683.908508 979.857300,684.266296 980.197449,684.624146 
	C982.663513,682.253357 985.129578,679.882629 987.870789,677.247314 
	C987.976440,678.400574 988.097778,679.725281 988.219116,681.486816 
z"/>
<path fill="#D9C8C3" opacity="1.000000" stroke="none" 
	d="
M978.941284,510.582581 
	C978.765198,513.321960 979.487366,515.062317 981.886169,513.309753 
	C984.021240,511.749908 985.585022,509.408051 987.693604,507.089508 
	C987.693604,512.700134 987.693604,518.241455 987.693604,524.463074 
	C985.000732,521.306091 984.741211,516.133545 979.190918,516.740051 
	C979.190918,522.090637 979.190918,527.341309 979.190918,532.846680 
	C987.236572,533.449341 990.960999,528.126892 994.885254,522.321533 
	C994.885254,526.304993 994.885254,530.288452 994.885254,534.645691 
	C984.680664,534.645691 974.479736,534.645691 965.184937,534.645691 
	C965.805298,532.267090 966.916931,529.849670 966.986084,527.402771 
	C967.216614,519.246216 967.199768,511.075928 966.987427,502.918457 
	C966.931702,500.777527 965.825623,498.663910 965.115662,496.243896 
	C973.842590,496.243896 983.375366,496.243896 993.510864,496.243896 
	C993.675781,499.834900 993.842590,503.466858 994.009399,507.098785 
	C993.591919,507.308441 993.174500,507.518097 992.757080,507.727753 
	C989.567139,502.607941 986.833069,496.783569 978.941040,498.314636 
	C978.941040,502.193878 978.941040,506.163513 978.941284,510.582581 
z"/>
<path fill="#D8C7C2" opacity="1.000000" stroke="none" 
	d="
M781.426758,583.377563 
	C780.178589,582.791077 779.237976,582.435852 778.297302,582.080688 
	C778.353210,581.810547 778.409119,581.540405 778.465027,581.270264 
	C784.641541,581.270264 790.818054,581.270264 796.979309,581.270264 
	C794.882874,584.518616 795.283325,585.811096 800.963928,593.723633 
	C801.415344,593.213867 801.895874,592.795288 802.224060,592.279785 
	C803.996521,589.495667 805.731262,586.687500 807.698669,583.535706 
	C806.017517,583.007874 804.650452,582.578674 803.283386,582.149475 
	C803.323242,581.886414 803.363098,581.623413 803.402954,581.360352 
	C807.185364,581.360352 810.967773,581.360352 814.750183,581.360352 
	C807.936829,584.210266 806.961487,591.318359 803.284546,596.228455 
	C802.799072,596.876648 803.494019,598.745422 804.082153,599.804565 
	C807.061340,605.169006 810.066345,610.528015 813.336121,615.716431 
	C814.258118,617.179382 816.105225,618.059326 817.891235,619.499512 
	C811.370300,619.499512 804.994751,619.499512 797.681763,619.499512 
	C799.146729,618.564758 799.960571,618.045532 800.923279,617.431274 
	C798.831116,613.705139 796.726013,609.956177 794.195496,605.449402 
	C791.567078,609.681152 789.206848,613.481201 786.760315,617.420105 
	C788.568054,617.969299 789.975647,618.396973 791.383240,618.824585 
	C791.333008,619.101013 791.282776,619.377380 791.232544,619.653809 
	C787.438599,619.653809 783.644714,619.653809 779.850830,619.653809 
	C786.428101,616.911560 787.346863,609.923523 790.829712,604.927979 
	C791.665527,603.729248 791.482727,601.103210 790.746033,599.652832 
	C787.970703,594.188843 784.773499,588.938965 781.426758,583.377563 
z"/>
<path fill="#D5C5C1" opacity="1.000000" stroke="none" 
	d="
M625.275757,674.817749 
	C622.340820,672.207764 619.920837,669.296631 616.819641,667.761475 
	C613.956604,666.344177 610.335754,667.710632 609.726074,671.034668 
	C609.408142,672.768372 611.550171,675.638855 613.349182,676.900208 
	C615.553101,678.445251 618.566833,678.826599 621.220154,679.740845 
	C629.383057,682.553467 632.541687,687.792114 630.885803,695.740112 
	C629.531921,702.238220 623.292847,706.385925 615.702576,705.759888 
	C613.719666,705.596313 611.761658,705.109253 609.778442,704.978271 
	C607.673279,704.839294 605.551758,704.947083 603.055786,704.947083 
	C602.817200,700.904175 602.561523,696.571533 602.305847,692.238892 
	C602.762268,692.060852 603.218750,691.882812 603.675171,691.704773 
	C604.545288,692.900269 605.230042,694.311096 606.320557,695.250732 
	C609.507507,697.996460 612.547424,701.272644 616.275024,702.875671 
	C618.077942,703.650879 622.494568,701.849182 623.596375,699.966736 
	C625.443420,696.811035 623.140015,694.014648 619.687866,692.753174 
	C616.897644,691.733582 614.044434,690.882385 611.271667,689.819336 
	C604.351318,687.166321 601.583984,682.170837 602.891235,674.877380 
	C603.933777,669.060852 608.779236,665.061035 615.536194,665.152100 
	C619.716064,665.208374 623.884277,666.135803 628.494385,666.728271 
	C628.494385,670.106018 628.494385,673.706848 628.494385,678.569824 
	C627.118652,676.986633 626.306152,676.051636 625.275757,674.817749 
z"/>
<path fill="#DBCAC4" opacity="1.000000" stroke="none" 
	d="
M701.854553,689.999268 
	C701.854553,682.408691 701.854553,675.319092 701.854553,667.977356 
	C694.197876,669.152222 694.932617,676.602966 690.111450,680.085876 
	C690.405579,675.588684 690.699646,671.091492 691.016296,666.249390 
	C702.007935,666.249390 712.885071,666.249390 723.978088,666.249390 
	C724.272461,670.870667 724.560181,675.387512 724.927490,681.154480 
	C719.776917,676.827026 721.096069,668.919678 713.603271,668.051331 
	C713.603271,679.623291 713.603271,690.997437 713.603271,702.485840 
	C714.945496,702.899170 716.397400,703.346313 717.849365,703.793457 
	C717.796753,704.067322 717.744202,704.341248 717.691589,704.615173 
	C710.891907,704.615173 704.092285,704.615173 697.292603,704.615173 
	C697.211426,704.368042 697.130310,704.120972 697.049133,703.873840 
	C698.549438,703.394836 700.049805,702.915833 701.854553,702.339600 
	C701.854553,698.454224 701.854553,694.477173 701.854553,689.999268 
z"/>
<path fill="#DBCAC4" opacity="1.000000" stroke="none" 
	d="
M610.854553,525.994507 
	C610.854553,516.406006 610.854553,507.318878 610.854553,497.976227 
	C603.199951,499.150238 603.933228,506.602173 599.113342,510.084442 
	C599.406860,505.586517 599.700317,501.088623 600.016174,496.247955 
	C611.008423,496.247955 621.886169,496.247955 632.976135,496.247955 
	C633.271790,500.871155 633.560608,505.388367 633.929016,511.149750 
	C628.770874,506.836212 630.098267,498.923615 622.606628,498.049927 
	C622.606628,509.622711 622.606628,520.996704 622.606628,532.486938 
	C623.934631,532.896179 625.379150,533.341309 626.823669,533.786438 
	C626.778076,534.062561 626.732544,534.338745 626.687012,534.614868 
	C619.888306,534.614868 613.089600,534.614868 606.290955,534.614868 
	C606.210083,534.367554 606.129272,534.120178 606.048462,533.872864 
	C607.550171,533.394226 609.051880,532.915588 610.854553,532.341064 
	C610.854553,530.452454 610.854553,528.474121 610.854553,525.994507 
z"/>
<path fill="#171E49" opacity="1.000000" stroke="none" 
	d="
M339.116058,614.226440 
	C341.214081,606.619995 341.214294,606.586914 348.673889,606.631775 
	C354.489441,606.666809 360.306946,606.719482 366.119080,606.905090 
	C373.178284,607.130615 378.238708,610.786499 380.700378,617.159546 
	C385.480011,629.533569 384.041626,641.335388 375.671722,651.855713 
	C370.723358,658.075439 364.047363,660.991638 356.042755,660.911499 
	C348.064117,660.831665 340.083099,660.816589 332.105103,660.923401 
	C328.042999,660.977783 326.793030,659.553467 327.944855,655.461304 
	C331.765686,641.886841 335.345062,628.244507 339.116058,614.226440 
z"/>
<path fill="#171E49" opacity="1.000000" stroke="none" 
	d="
M354.888245,556.949341 
	C357.157898,555.579834 359.230316,553.936829 361.427673,553.748047 
	C366.387360,553.321960 371.410614,553.526123 376.404694,553.631958 
	C389.488159,553.909119 395.441101,560.146790 395.335785,573.341187 
	C395.222809,587.497803 385.425201,598.811340 371.336060,599.916992 
	C362.263184,600.629028 353.089050,600.050720 343.030762,600.050720 
	C346.982544,585.644226 350.865112,571.490112 354.888245,556.949341 
z"/>
<path fill="#252A52" opacity="1.000000" stroke="none" 
	d="
M886.687927,683.729492 
	C885.745850,678.687866 885.210510,673.618103 884.670776,668.506470 
	C888.627563,667.342712 890.969482,668.060547 891.958191,671.438843 
	C893.644714,677.201721 891.772827,681.812195 886.687927,683.729492 
z"/>
<path fill="#252A52" opacity="1.000000" stroke="none" 
	d="
M621.524780,608.234009 
	C620.909790,617.413086 620.388428,618.103210 614.499268,617.650757 
	C614.499268,612.230286 614.499268,606.790161 614.499268,601.248230 
	C620.157288,600.131165 621.145996,603.642517 621.524780,608.234009 
z"/>
<path fill="#252A52" opacity="1.000000" stroke="none" 
	d="
M620.047729,590.048889 
	C620.044983,594.167480 620.302368,598.007629 614.697144,598.728821 
	C614.697144,593.517822 614.697144,588.499146 614.697144,583.110596 
	C619.760986,582.571655 620.043396,585.966370 620.047729,590.048889 
z"/>
<path fill="#181E4A" opacity="1.000000" stroke="none" 
	d="
M805.011108,691.750488 
	C804.642334,694.661804 804.821106,697.383789 803.750732,699.462585 
	C802.859802,701.193054 800.537781,703.141418 798.783752,703.206116 
	C797.004395,703.271606 793.621765,701.219788 793.561462,699.969055 
	C793.096191,690.312988 793.061768,680.617371 793.480957,670.959473 
	C793.538330,669.636719 796.940613,667.343018 798.606689,667.499268 
	C800.527405,667.679443 803.577820,669.894714 803.806763,671.548767 
	C804.707825,678.057922 804.692810,684.693848 805.011108,691.750488 
z"/>
<path fill="#181E4A" opacity="1.000000" stroke="none" 
	d="
M704.673340,617.791260 
	C703.498108,616.204590 702.060974,614.809937 702.021423,613.376709 
	C701.784973,604.819641 701.728088,596.250549 701.918335,587.692261 
	C701.995544,584.219604 704.540710,581.730225 707.780762,582.475647 
	C709.917847,582.967407 712.947937,585.766968 713.081665,587.705383 
	C713.658752,596.072021 713.609131,604.516907 713.192139,612.903625 
	C712.954102,617.690857 709.684814,619.343872 704.673340,617.791260 
z"/>
</svg>